# xmcd CD database file
#
# Track frame offsets:
#	150
#	11594
#	25798
#	39030
#	52871
#	65918
#	81263
#	95192
#	109886
#	122926
#	137574
#	150541
#	163178
#	175429
#	189463
#	203851
#	217588
#	229643
#	241913
#	253923
#	267897
#	280367
#
# Disc length: 3905 seconds
#
# Revision: 0
# Processed by: cddbd v1.5.1PL0 Copyright (c) Steve Scherf et al.
# Submitted via: CDex 1.51
#
DISCID=350f3f16
DTITLE=Stan Kenton - The Great Big Band Collection [Joan #7151, 2002]
DYEAR=1951
DGENRE=Jazz
TTITLE0=Mambo Rhapsody
TTITLE1=Riff Raff
TTITLE2=Star Dust
TTITLE3=Bags and Baggage
TTITLE4=Bill's Blues
TTITLE5=Cool Eyes
TTITLE6=Beehive
TTITLE7=Taboo
TTITLE8=Swing House
TTITLE9=Portrait of a Count
TTITLE10=Invention for Guitar
TTITLE11=Lover Man
TTITLE12=Fascinating Rhythm
TTITLE13=Danyflow
TTITLE14=What's New
TTITLE15=Jump for Joe
TTITLE16=Night Watch
TTITLE17=Francesca
TTITLE18=Sambo
TTITLE19=Street of Dreams
TTITLE20=Soliloquy
TTITLE21=Lazy Daisy
EXTD=YEAR: 1951
EXTT0=
EXTT1=
EXTT2=
EXTT3=
EXTT4=
EXTT5=
EXTT6=
EXTT7=
EXTT8=
EXTT9=
EXTT10=
EXTT11=
EXTT12=
EXTT13=
EXTT14=
EXTT15=
EXTT16=
EXTT17=
EXTT18=
EXTT19=
EXTT20=
EXTT21=
PLAYORDER=
